<svg width="128" height="34" viewBox="0 0 128 34" fill="none" xmlns="http://www.w3.org/2000/svg">
<g clip-path="url(#clip0_3016_20842)">
<g clip-path="url(#clip1_3016_20842)">
<path d="M24.6875 16.8931C24.6875 15.4758 25.2505 14.1166 26.2526 13.1145C27.2548 12.1123 28.614 11.5493 30.0312 11.5493C31.4485 11.5493 32.8077 12.1123 33.8099 13.1145C34.812 14.1166 35.375 15.4758 35.375 16.8931C35.375 18.3103 34.812 19.6695 33.8099 20.6717C32.8077 21.6738 31.4485 22.2368 30.0312 22.2368C28.614 22.2368 27.2548 21.6738 26.2526 20.6717C25.2505 19.6695 24.6875 18.3103 24.6875 16.8931Z" fill="black"/>
<path d="M14 27.5806C14 26.1633 14.563 24.8041 15.5651 23.802C16.5673 22.7998 17.9265 22.2368 19.3438 22.2368H24.6875V27.5806C24.6875 28.9978 24.1245 30.357 23.1224 31.3592C22.1202 32.3613 20.761 32.9243 19.3438 32.9243C17.9265 32.9243 16.5673 32.3613 15.5651 31.3592C14.563 30.357 14 28.9978 14 27.5806Z" fill="black"/>
<path d="M24.6875 0.861816V11.5493H30.0312C31.4485 11.5493 32.8077 10.9863 33.8099 9.98417C34.812 8.98202 35.375 7.62282 35.375 6.20557C35.375 4.78832 34.812 3.42911 33.8099 2.42696C32.8077 1.42482 31.4485 0.861816 30.0312 0.861816H24.6875Z" fill="black"/>
<path d="M14 6.20557C14 7.62282 14.563 8.98202 15.5651 9.98417C16.5673 10.9863 17.9265 11.5493 19.3438 11.5493H24.6875V0.861816H19.3438C17.9265 0.861816 16.5673 1.42482 15.5651 2.42696C14.563 3.42911 14 4.78832 14 6.20557Z" fill="black"/>
<path d="M14 16.8931C14 18.3103 14.563 19.6695 15.5651 20.6717C16.5673 21.6738 17.9265 22.2368 19.3438 22.2368H24.6875V11.5493H19.3438C17.9265 11.5493 16.5673 12.1123 15.5651 13.1145C14.563 14.1166 14 15.4758 14 16.8931Z" fill="black"/>
<path d="M45.415 8.09307H56.431V9.77307H47.335V15.5091H54.175V17.1891H47.335V24.8931H45.415V8.09307ZM59.6689 12.8931H61.4449V24.8931H59.6689V12.8931ZM60.5809 10.4931C60.2129 10.4931 59.9089 10.3731 59.6689 10.1331C59.4289 9.89307 59.3089 9.59707 59.3089 9.24507C59.3089 8.87707 59.4289 8.57307 59.6689 8.33307C59.9089 8.09307 60.2129 7.97307 60.5809 7.97307C60.9169 7.97307 61.2049 8.09307 61.4449 8.33307C61.7009 8.57307 61.8289 8.87707 61.8289 9.24507C61.8289 9.59707 61.7009 9.89307 61.4449 10.1331C61.2049 10.3731 60.9169 10.4931 60.5809 10.4931ZM74.7124 12.8931H76.3684V22.6851C76.3684 24.1571 76.0404 25.4131 75.3844 26.4531C74.7284 27.5091 73.7764 28.3091 72.5284 28.8531C71.2804 29.4131 69.7604 29.6931 67.9684 29.6931L67.6804 28.0371C69.9364 28.0051 71.6484 27.5331 72.8164 26.6211C73.9844 25.7251 74.5684 24.4131 74.5684 22.6851V22.4211L74.7604 22.4691C74.3924 23.1731 73.8404 23.7811 73.1044 24.2931C72.3684 24.7891 71.4164 25.0451 70.2484 25.0611C69.1444 25.0611 68.1764 24.8131 67.3444 24.3171C66.5284 23.8051 65.8884 23.0851 65.4244 22.1571C64.9764 21.2291 64.7524 20.1411 64.7524 18.8931C64.7524 17.6451 64.9764 16.5651 65.4244 15.6531C65.8884 14.7251 66.5284 14.0051 67.3444 13.4931C68.1764 12.9811 69.1444 12.7251 70.2484 12.7251C70.9684 12.7251 71.6084 12.8371 72.1684 13.0611C72.7284 13.2691 73.2084 13.5571 73.6084 13.9251C74.0084 14.2771 74.3364 14.6771 74.5924 15.1251L74.7124 12.8931ZM66.6964 18.8931C66.6964 20.2691 67.0484 21.3651 67.7524 22.1811C68.4724 22.9811 69.4404 23.3811 70.6564 23.3811C71.3924 23.3811 72.0564 23.2051 72.6484 22.8531C73.2404 22.5011 73.7044 21.9891 74.0404 21.3171C74.3924 20.6451 74.5684 19.8371 74.5684 18.8931C74.5684 17.9491 74.3924 17.1491 74.0404 16.4931C73.7044 15.8211 73.2404 15.3091 72.6484 14.9571C72.0564 14.5891 71.3924 14.4051 70.6564 14.4051C69.4564 14.4051 68.4964 14.8131 67.7764 15.6291C67.0564 16.4451 66.6964 17.5331 66.6964 18.8931ZM80.0511 12.8931H81.7071L81.8271 14.6211C82.1791 14.0451 82.6511 13.5891 83.2431 13.2531C83.8511 12.9011 84.5711 12.7251 85.4031 12.7251C86.2511 12.7251 87.0191 12.9331 87.7071 13.3491C88.4111 13.7491 88.9551 14.3491 89.3391 15.1491C89.7071 14.3331 90.2671 13.7251 91.0191 13.3251C91.7711 12.9251 92.6031 12.7251 93.5151 12.7251C94.4111 12.7251 95.2031 12.9251 95.8911 13.3251C96.5791 13.7091 97.1151 14.2931 97.4991 15.0771C97.8831 15.8451 98.0751 16.8131 98.0751 17.9811V24.8931H96.2751V18.1971C96.2751 16.9491 96.0031 16.0051 95.4591 15.3651C94.9311 14.7091 94.1711 14.3811 93.1791 14.3811C92.1711 14.3811 91.3711 14.7331 90.7791 15.4371C90.1871 16.1251 89.8911 17.1491 89.8911 18.5091V24.8931H88.0911V18.1971C88.0911 16.9491 87.8351 16.0051 87.3231 15.3651C86.8111 14.7091 86.0591 14.3811 85.0671 14.3811C84.0591 14.3811 83.2671 14.7331 82.6911 15.4371C82.1311 16.1251 81.8511 17.1491 81.8511 18.5091V24.8931H80.0511V12.8931ZM109.079 24.8931L108.935 22.7331C108.599 23.4691 108.103 24.0451 107.447 24.4611C106.791 24.8611 105.959 25.0611 104.951 25.0611C104.087 25.0611 103.351 24.9251 102.743 24.6531C102.135 24.3811 101.663 23.9971 101.327 23.5011C101.007 22.9891 100.847 22.3891 100.847 21.7011C100.847 20.6931 101.223 19.8691 101.975 19.2291C102.727 18.5731 103.815 18.1731 105.239 18.0291L108.935 17.6211V16.6611C108.935 15.9891 108.687 15.4531 108.191 15.0531C107.695 14.6371 107.023 14.4291 106.175 14.4291C105.343 14.4291 104.647 14.6211 104.087 15.0051C103.543 15.3891 103.167 15.9411 102.959 16.6611L101.327 16.0851C101.647 15.0291 102.231 14.2051 103.079 13.6131C103.943 13.0211 104.991 12.7251 106.223 12.7251C107.647 12.7251 108.751 13.0931 109.535 13.8291C110.335 14.5491 110.735 15.5331 110.735 16.7811V24.8931H109.079ZM108.935 19.1571L105.215 19.5891C104.415 19.6851 103.807 19.9091 103.391 20.2611C102.975 20.5971 102.767 21.0451 102.767 21.6051C102.767 22.1651 102.967 22.6131 103.367 22.9491C103.783 23.2851 104.375 23.4531 105.143 23.4531C106.023 23.4531 106.743 23.2771 107.303 22.9251C107.863 22.5731 108.271 22.1011 108.527 21.5091C108.799 20.9011 108.935 20.2451 108.935 19.5411V19.1571Z" fill="black"/>
</g>
</g>
<defs>
<clipPath id="clip0_3016_20842">
<rect width="128" height="34" fill="white"/>
</clipPath>
<clipPath id="clip1_3016_20842">
<rect width="99.375" height="34" fill="white" transform="translate(14 -0.106934)"/>
</clipPath>
</defs>
</svg>
