<svg width="128" height="34" viewBox="0 0 128 34" fill="none" xmlns="http://www.w3.org/2000/svg">
<g clip-path="url(#clip0_3016_20867)">
<path d="M32.4834 16.8927C32.4834 18.8794 30.8728 20.49 28.8861 20.49C26.8993 20.49 25.2887 18.8794 25.2887 16.8927C25.2887 14.9059 26.8993 13.2953 28.8861 13.2953C30.8728 13.2953 32.4834 14.9059 32.4834 16.8927Z" fill="black"/>
<path fill-rule="evenodd" clip-rule="evenodd" d="M28.0091 2.28665C28.3008 2.49681 28.5933 2.71973 28.8861 2.95496C29.1789 2.71973 29.4714 2.49681 29.7631 2.28665C32.7091 0.164056 35.8961 -0.867956 38.3291 0.536763C40.7622 1.94148 41.4619 5.21746 41.0967 8.83012C41.0606 9.1878 41.0138 9.55261 40.9564 9.92377C41.3065 10.0597 41.6458 10.2016 41.9737 10.3491C45.2849 11.8392 47.7721 14.0831 47.7721 16.8926C47.7721 19.702 45.2849 21.946 41.9737 23.436C41.6458 23.5836 41.3065 23.7254 40.9564 23.8614C41.0137 24.2325 41.0605 24.5974 41.0967 24.955C41.4619 28.5677 40.7622 31.8437 38.3291 33.2484C35.8961 34.6531 32.7091 33.6211 29.7631 31.4985C29.4714 31.2884 29.1789 31.0654 28.8861 30.8302C28.5933 31.0654 28.3008 31.2884 28.0091 31.4985C25.063 33.6211 21.8761 34.6531 19.4431 33.2484C17.01 31.8437 16.3103 28.5677 16.6755 24.955C16.7116 24.5974 16.7584 24.2326 16.8158 23.8614C16.4657 23.7254 16.1263 23.5836 15.7985 23.436C12.4872 21.946 10 19.702 10 16.8926C10 14.0831 12.4872 11.8392 15.7985 10.3491C16.1263 10.2016 16.4656 10.0597 16.8158 9.92375C16.7584 9.55259 16.7116 9.1878 16.6755 8.83012C16.3103 5.21746 17.01 1.94148 19.4431 0.536762C21.8761 -0.867957 25.063 0.164055 28.0091 2.28665ZM20.3424 2.09446C21.7807 1.26407 24.1118 1.69558 26.9577 3.746C27.1391 3.87671 27.3213 4.01317 27.5041 4.15523C26.2658 5.31161 25.0402 6.67545 23.8734 8.21029C21.9608 8.45338 20.1668 8.83284 18.5462 9.32702C18.5146 9.0977 18.4875 8.87168 18.465 8.64922C18.1123 5.1594 18.9041 2.92485 20.3424 2.09446ZM26.3629 7.97648C27.1933 6.9904 28.0407 6.10308 28.8861 5.32687C29.7315 6.10308 30.5789 6.9904 31.4093 7.97648C30.5832 7.92547 29.7408 7.8992 28.8861 7.8992C28.0313 7.8992 27.189 7.92547 26.3629 7.97648ZM30.2681 4.15523C31.5064 5.31161 32.732 6.67546 33.8988 8.2103C35.8114 8.45339 37.6054 8.83285 39.226 9.32704C39.2576 9.09771 39.2847 8.87169 39.3072 8.64922C39.6599 5.1594 38.8681 2.92485 37.4298 2.09446C35.9915 1.26407 33.6604 1.69558 30.8145 3.746C30.6331 3.87671 30.4509 4.01317 30.2681 4.15523ZM28.8861 9.69788C30.2774 9.69788 31.6276 9.77054 32.9192 9.90701C33.6832 10.9573 34.4212 12.0903 35.1169 13.2952C35.8126 14.5002 36.4247 15.7058 36.9523 16.8926C36.4247 18.0794 35.8126 19.285 35.1169 20.4899C34.4212 21.6949 33.6832 22.8278 32.9192 23.8781C31.6276 24.0146 30.2774 24.0873 28.8861 24.0873C27.4947 24.0873 26.1446 24.0146 24.853 23.8781C24.089 22.8278 23.351 21.6949 22.6553 20.4899C21.9596 19.285 21.3475 18.0794 20.8199 16.8926C21.3475 15.7058 21.9596 14.5002 22.6553 13.2952C23.351 12.0903 24.089 10.9573 24.853 9.90701C26.1446 9.77053 27.4947 9.69788 28.8861 9.69788ZM36.6746 12.3959C37.102 13.1362 37.5004 13.8788 37.8693 14.6197C38.308 13.4075 38.6528 12.23 38.9023 11.1097C37.8074 10.7657 36.6152 10.4755 35.346 10.2493C35.8033 10.9393 36.2472 11.6556 36.6746 12.3959ZM36.6746 21.3893C37.102 20.649 37.5004 19.9064 37.8693 19.1655C38.308 20.3776 38.6528 21.5551 38.9023 22.6754C37.8074 23.0195 36.6152 23.3097 35.346 23.5358C35.8033 22.8459 36.2472 22.1295 36.6746 21.3893ZM38.9115 16.8926C39.6573 18.6705 40.2256 20.4138 40.608 22.0644C40.8224 21.9771 41.0317 21.8875 41.2356 21.7958C44.4342 20.3564 45.9735 18.5533 45.9735 16.8926C45.9735 15.2318 44.4342 13.4287 41.2356 11.9894C41.0317 11.8976 40.8224 11.808 40.608 11.7208C40.2257 13.3713 39.6573 15.1147 38.9115 16.8926ZM33.8988 25.5748C35.8114 25.3318 37.6054 24.9523 39.2259 24.4581C39.2576 24.6874 39.2847 24.9135 39.3071 25.1359C39.6599 28.6258 38.8681 30.8603 37.4298 31.6907C35.9915 32.5211 33.6604 32.0896 30.8145 30.0392C30.6331 29.9084 30.4509 29.772 30.2681 29.6299C31.5064 28.4735 32.732 27.1097 33.8988 25.5748ZM31.4093 25.8087C30.5789 26.7947 29.7315 27.6821 28.8861 28.4583C28.0407 27.6821 27.1933 26.7948 26.3629 25.8087C27.189 25.8597 28.0313 25.8859 28.8861 25.8859C29.7409 25.8859 30.5832 25.8597 31.4093 25.8087ZM21.0976 21.3893C21.525 22.1295 21.9689 22.8459 22.4261 23.5358C21.157 23.3097 19.9648 23.0195 18.8699 22.6754C19.1194 21.5552 19.4642 20.3776 19.9029 19.1655C20.2718 19.9064 20.6702 20.649 21.0976 21.3893ZM23.8734 25.5749C21.9607 25.3318 20.1668 24.9523 18.5462 24.4581C18.5146 24.6875 18.4875 24.9135 18.465 25.1359C18.1123 28.6258 18.9041 30.8603 20.3424 31.6907C21.7807 32.5211 24.1118 32.0896 26.9577 30.0392C27.1391 29.9084 27.3213 29.772 27.5041 29.6299C26.2658 28.4735 25.0402 27.1097 23.8734 25.5749ZM18.8607 16.8926C18.1149 18.6705 17.5465 20.4138 17.1642 22.0644C16.9498 21.9771 16.7405 21.8876 16.5366 21.7958C13.3379 20.3564 11.7987 18.5533 11.7987 16.8926C11.7987 15.2318 13.3379 13.4287 16.5366 11.9894C16.7405 11.8976 16.9498 11.808 17.1642 11.7208C17.5465 13.3713 18.1149 15.1147 18.8607 16.8926ZM19.9029 14.6197C19.4641 13.4075 19.1194 12.23 18.8699 11.1097C19.9648 10.7656 21.157 10.4754 22.4262 10.2493C21.9689 10.9393 21.525 11.6556 21.0976 12.3959C20.6702 13.1362 20.2718 13.8788 19.9029 14.6197Z" fill="black"/>
<path d="M67.5075 13.0606C67.5075 12.0526 67.2115 11.2526 66.6195 10.6606C66.0275 10.0686 65.0595 9.77258 63.7155 9.77258H59.7315V16.3486H63.7395C64.6195 16.3486 65.3315 16.2126 65.8755 15.9406C66.4355 15.6686 66.8435 15.2846 67.0995 14.7886C67.3715 14.2926 67.5075 13.7166 67.5075 13.0606ZM63.7155 8.09258C65.0275 8.09258 66.0995 8.31658 66.9315 8.76458C67.7795 9.21258 68.4115 9.81258 68.8275 10.5646C69.2435 11.3006 69.4515 12.1326 69.4515 13.0606C69.4515 13.7166 69.3395 14.3406 69.1155 14.9326C68.9075 15.5246 68.5715 16.0526 68.1075 16.5166C67.6435 16.9806 67.0515 17.3486 66.3315 17.6206C65.6115 17.8926 64.7475 18.0286 63.7395 18.0286H59.7315V24.8926H57.8115V8.09258H63.7155ZM65.1075 17.3086L69.7635 24.8926H67.5795L63.0435 17.3086H65.1075ZM77.6595 25.0606C76.5395 25.0606 75.5395 24.7886 74.6595 24.2446C73.7955 23.7006 73.1155 22.9566 72.6195 22.0126C72.1235 21.0686 71.8755 19.9886 71.8755 18.7726C71.8755 17.6046 72.1235 16.5646 72.6195 15.6526C73.1155 14.7406 73.7955 14.0286 74.6595 13.5166C75.5235 12.9886 76.5075 12.7246 77.6115 12.7246C78.6995 12.7246 79.6675 12.9646 80.5155 13.4446C81.3795 13.9246 82.0515 14.5886 82.5315 15.4366C83.0115 16.2846 83.2355 17.2526 83.2035 18.3406C83.2035 18.5166 83.1955 18.7006 83.1795 18.8926C83.1635 19.0846 83.1475 19.2926 83.1315 19.5166H73.8435C73.8755 20.2686 74.0595 20.9326 74.3955 21.5086C74.7315 22.0846 75.1715 22.5406 75.7155 22.8766C76.2755 23.1966 76.9075 23.3566 77.6115 23.3566C78.5395 23.3566 79.3235 23.1806 79.9635 22.8286C80.6195 22.4766 81.0915 21.9726 81.3795 21.3166L82.9395 21.9406C82.4595 22.9486 81.7635 23.7246 80.8515 24.2686C79.9395 24.7966 78.8755 25.0606 77.6595 25.0606ZM81.2355 17.9566C81.2515 17.2686 81.0995 16.6606 80.7795 16.1326C80.4755 15.6046 80.0435 15.1886 79.4835 14.8846C78.9235 14.5806 78.2755 14.4286 77.5395 14.4286C76.8995 14.4286 76.3155 14.5806 75.7875 14.8846C75.2595 15.1886 74.8195 15.6126 74.4675 16.1566C74.1315 16.6846 73.9315 17.2846 73.8675 17.9566H81.2355ZM93.6784 24.8926L93.5344 22.7326C93.1984 23.4686 92.7024 24.0446 92.0464 24.4606C91.3904 24.8606 90.5584 25.0606 89.5504 25.0606C88.6864 25.0606 87.9504 24.9246 87.3424 24.6526C86.7344 24.3806 86.2624 23.9966 85.9264 23.5006C85.6064 22.9886 85.4464 22.3886 85.4464 21.7006C85.4464 20.6926 85.8224 19.8686 86.5744 19.2286C87.3264 18.5726 88.4144 18.1726 89.8384 18.0286L93.5344 17.6206V16.6606C93.5344 15.9886 93.2864 15.4526 92.7904 15.0526C92.2944 14.6366 91.6224 14.4286 90.7744 14.4286C89.9424 14.4286 89.2464 14.6206 88.6864 15.0046C88.1424 15.3886 87.7664 15.9406 87.5584 16.6606L85.9264 16.0846C86.2464 15.0286 86.8304 14.2046 87.6784 13.6126C88.5424 13.0206 89.5904 12.7246 90.8224 12.7246C92.2464 12.7246 93.3504 13.0926 94.1344 13.8286C94.9344 14.5486 95.3344 15.5326 95.3344 16.7806V24.8926H93.6784ZM93.5344 19.1566L89.8144 19.5886C89.0144 19.6846 88.4064 19.9086 87.9904 20.2606C87.5744 20.5966 87.3664 21.0446 87.3664 21.6046C87.3664 22.1646 87.5664 22.6126 87.9664 22.9486C88.3824 23.2846 88.9744 23.4526 89.7424 23.4526C90.6224 23.4526 91.3424 23.2766 91.9024 22.9246C92.4624 22.5726 92.8704 22.1006 93.1264 21.5086C93.3984 20.9006 93.5344 20.2446 93.5344 19.5406V19.1566ZM103.958 25.0606C102.79 25.0606 101.766 24.8046 100.886 24.2926C100.006 23.7806 99.318 23.0686 98.822 22.1566C98.342 21.2286 98.102 20.1566 98.102 18.9406C98.102 17.7086 98.342 16.6286 98.822 15.7006C99.318 14.7566 100.006 14.0286 100.886 13.5166C101.766 12.9886 102.79 12.7246 103.958 12.7246C105.19 12.7246 106.27 13.0126 107.198 13.5886C108.126 14.1486 108.798 14.9326 109.214 15.9406L107.558 16.5166C107.318 15.8766 106.878 15.3726 106.238 15.0046C105.614 14.6206 104.886 14.4286 104.054 14.4286C103.238 14.4286 102.526 14.6126 101.918 14.9806C101.326 15.3486 100.862 15.8686 100.526 16.5406C100.206 17.2126 100.046 18.0046 100.046 18.9166C100.046 20.2606 100.406 21.3406 101.126 22.1566C101.846 22.9566 102.806 23.3566 104.006 23.3566C104.822 23.3566 105.55 23.1726 106.19 22.8046C106.83 22.4366 107.302 21.9406 107.606 21.3166L109.238 21.8926C108.806 22.8846 108.126 23.6606 107.198 24.2206C106.27 24.7806 105.19 25.0606 103.958 25.0606ZM112.481 12.8926V9.53258H114.281V12.8926H117.473V14.5726H114.281V21.0286C114.281 21.7646 114.433 22.3006 114.737 22.6366C115.057 22.9726 115.457 23.1726 115.937 23.2366C116.433 23.3006 116.945 23.3006 117.473 23.2366V24.7966C116.849 24.9406 116.233 24.9806 115.625 24.9166C115.033 24.8526 114.497 24.6766 114.017 24.3886C113.553 24.0846 113.177 23.6606 112.889 23.1166C112.617 22.5726 112.481 21.8766 112.481 21.0286V14.5726H110.681V12.8926H112.481Z" fill="black"/>
</g>
<defs>
<clipPath id="clip0_3016_20867">
<rect width="128" height="34" fill="white"/>
</clipPath>
</defs>
</svg>
