<svg width="128" height="34" viewBox="0 0 128 34" fill="none" xmlns="http://www.w3.org/2000/svg">
<g clip-path="url(#clip0_3016_20856)">
<g clip-path="url(#clip1_3016_20856)">
<path fill-rule="evenodd" clip-rule="evenodd" d="M46.5126 10.0567C46.5202 10.3286 46.5232 10.6 46.5248 10.8715C46.5268 11.1811 46.5267 11.4908 46.5267 11.8003L46.5267 22.0185C46.5267 22.3173 46.5267 22.6158 46.5247 22.9147C46.5231 23.1863 46.5201 23.4576 46.5125 23.729C46.4966 24.3207 46.4613 24.9176 46.3552 25.5023C46.2475 26.0963 46.0715 26.6492 45.7941 27.1888C45.5218 27.719 45.1658 28.2038 44.7411 28.6243C44.3166 29.0451 43.8269 29.3976 43.2915 29.6676C42.7471 29.9421 42.1892 30.1162 41.5899 30.2229C40.999 30.3281 40.3965 30.3632 39.799 30.379C39.5247 30.3862 39.2506 30.3894 38.9764 30.391C38.686 30.393 38.3954 30.393 38.105 30.393H27.6892C27.3987 30.393 27.1084 30.393 26.8181 30.391C26.5437 30.3894 26.2694 30.3862 25.9954 30.379C25.3981 30.3632 24.7952 30.3281 24.2045 30.2229C23.6051 30.1162 23.0473 29.9421 22.5028 29.6676C21.9674 29.3976 21.4776 29.0451 21.0532 28.6243C20.6285 28.2039 20.2725 27.719 20.0002 27.1888C19.7228 26.6492 19.547 26.0963 19.4392 25.5023C19.3331 24.9176 19.2979 24.3207 19.2819 23.729C19.2743 23.4576 19.2712 23.1862 19.2694 22.9147C19.2675 22.6296 19.2676 22.3449 19.2676 22.0599C19.2676 22.0223 19.2676 21.9846 19.2676 21.947V11.8389C19.2676 11.805 19.2676 11.771 19.2676 11.7371C19.2676 11.4486 19.2675 11.16 19.2694 10.8715C19.2712 10.5999 19.2743 10.3285 19.2819 10.0567C19.2979 9.46529 19.3332 8.86857 19.4392 8.28353C19.547 7.68939 19.7228 7.13695 20.0002 6.59723C20.2725 6.06719 20.6285 5.58217 21.0532 5.16156C21.1593 5.05641 21.2695 4.95553 21.3835 4.8591C21.7254 4.56988 22.1013 4.32098 22.5028 4.11858C22.6389 4.04998 22.7759 3.98761 22.9141 3.93106C23.3287 3.76126 23.7549 3.64324 24.2044 3.56323C24.6474 3.48417 25.0974 3.44485 25.5466 3.42339C25.6964 3.41625 25.846 3.41107 25.9954 3.40707C26.2693 3.3997 26.5437 3.39661 26.818 3.39493C27.1434 3.39307 27.4688 3.39307 27.7945 3.39307H37.9998C38.3252 3.39307 38.6509 3.39307 38.9764 3.39488C39.2507 3.39657 39.5247 3.39966 39.7991 3.40702C40.3966 3.42303 40.999 3.45776 41.59 3.56318C42.1893 3.66984 42.7471 3.84413 43.2916 4.11858C43.8269 4.38844 44.3166 4.741 44.7412 5.1616C45.1658 5.58221 45.5218 6.06724 45.7941 6.59727C46.0715 7.13699 46.2475 7.68944 46.3552 8.28357C46.4613 8.86861 46.4966 9.46534 46.5126 10.0567ZM40.8656 20.0574L40.8675 20.0596C43.2096 22.914 42.5725 25.9737 42.2727 25.3964C41.0486 23.0372 38.7679 23.6395 37.6133 24.2331C37.5175 24.2896 37.4196 24.3431 37.3209 24.3957C37.312 24.4011 37.3016 24.4068 37.2923 24.4123C37.2896 24.4139 37.287 24.4155 37.2846 24.417L37.2865 24.4143C34.8832 25.6792 31.6566 25.7728 28.4118 24.3916C25.691 23.2333 23.4554 21.2492 22.0039 18.9496C22.742 19.4893 23.5393 19.9643 24.3875 20.358C27.8165 21.9487 31.2606 21.8339 33.6979 20.3564C30.2289 17.714 27.3334 14.2728 25.1131 11.4838C24.686 10.9836 24.2975 10.464 23.9708 9.92443C26.6296 12.3347 30.8294 15.3614 32.3364 16.1991C29.1378 12.8519 26.3193 8.72975 26.4514 8.86173C31.4891 13.8895 36.1372 16.7321 36.1372 16.7321C36.3122 16.8277 36.4426 16.9041 36.546 16.9714C36.6414 16.7291 36.7276 16.4798 36.7993 16.2201C37.6037 13.3077 36.6984 9.97749 34.6507 7.22803C39.3234 10.0073 42.0846 15.2858 40.9532 19.7505C40.9313 19.8372 40.9061 19.9216 40.8809 20.006C40.8758 20.0232 40.8706 20.0403 40.8656 20.0574Z" fill="black"/>
<path d="M57.5033 20.6211C57.5993 21.0531 57.7993 21.4851 58.1033 21.9171C58.4233 22.3331 58.8553 22.6851 59.3993 22.9731C59.9593 23.2451 60.6713 23.3811 61.5353 23.3811C62.7673 23.3811 63.6793 23.0931 64.2713 22.5171C64.8633 21.9411 65.1593 21.2611 65.1593 20.4771C65.1593 19.8531 64.9913 19.3411 64.6553 18.9411C64.3193 18.5411 63.8633 18.2131 63.2873 17.9571C62.7113 17.6851 62.0633 17.4451 61.3433 17.2371C60.7033 17.0611 60.0633 16.8691 59.4233 16.6611C58.7993 16.4371 58.2313 16.1651 57.7193 15.8451C57.2073 15.5091 56.7993 15.0771 56.4953 14.5491C56.1913 14.0211 56.0393 13.3651 56.0393 12.5811C56.0393 11.6371 56.2633 10.8211 56.7113 10.1331C57.1593 9.42907 57.7913 8.88507 58.6073 8.50107C59.4233 8.11707 60.3753 7.92507 61.4633 7.92507C62.4073 7.92507 63.2313 8.06107 63.9353 8.33307C64.6393 8.60507 65.2233 8.98907 65.6873 9.48507C66.1673 9.96507 66.5193 10.5251 66.7433 11.1651L65.0393 11.8131C64.9273 11.4451 64.7113 11.0931 64.3913 10.7571C64.0713 10.4051 63.6553 10.1171 63.1433 9.89307C62.6313 9.66907 62.0473 9.55707 61.3913 9.55707C60.7513 9.55707 60.1673 9.66907 59.6393 9.89307C59.1273 10.1171 58.7193 10.4371 58.4153 10.8531C58.1113 11.2691 57.9593 11.7731 57.9593 12.3651C57.9593 13.0051 58.1353 13.5171 58.4873 13.9011C58.8553 14.2691 59.3353 14.5731 59.9273 14.8131C60.5353 15.0371 61.1993 15.2531 61.9193 15.4611C62.5753 15.6691 63.2073 15.8931 63.8153 16.1331C64.4393 16.3731 64.9913 16.6691 65.4713 17.0211C65.9673 17.3731 66.3593 17.8131 66.6473 18.3411C66.9353 18.8691 67.0793 19.5171 67.0793 20.2851C67.0793 21.1331 66.8793 21.9251 66.4793 22.6611C66.0793 23.3811 65.4713 23.9651 64.6553 24.4131C63.8553 24.8451 62.8233 25.0611 61.5593 25.0611C60.5033 25.0611 59.5753 24.9011 58.7753 24.5811C57.9753 24.2451 57.3193 23.7971 56.8073 23.2371C56.2953 22.6771 55.9433 22.0371 55.7513 21.3171L57.5033 20.6211ZM74.3326 24.8931H72.7006L68.9326 12.8931H70.7566L73.5166 22.6611L76.6126 12.8931H78.2446L81.2926 22.6371L84.0286 12.8931H85.8046L82.0606 24.8931H80.4046L77.3806 15.5811L74.3326 24.8931ZM88.6103 12.8931H90.3863V24.8931H88.6103V12.8931ZM89.5223 10.4931C89.1543 10.4931 88.8503 10.3731 88.6103 10.1331C88.3703 9.89307 88.2503 9.59707 88.2503 9.24507C88.2503 8.87707 88.3703 8.57307 88.6103 8.33307C88.8503 8.09307 89.1543 7.97307 89.5223 7.97307C89.8583 7.97307 90.1463 8.09307 90.3863 8.33307C90.6423 8.57307 90.7703 8.87707 90.7703 9.24507C90.7703 9.59707 90.6423 9.89307 90.3863 10.1331C90.1463 10.3731 89.8583 10.4931 89.5223 10.4931ZM95.0858 11.4771C95.0858 10.5971 95.2298 9.85307 95.5178 9.24507C95.8058 8.63707 96.2618 8.19707 96.8858 7.92507C97.5258 7.63707 98.3738 7.53307 99.4298 7.61307V9.22107C98.4698 9.14107 97.8058 9.30107 97.4378 9.70107C97.0698 10.0851 96.8858 10.6771 96.8858 11.4771V12.8931H99.5258V14.5731H96.8858V24.8931H95.0858V14.5731H93.4058V12.8931H95.0858V11.4771ZM102.987 12.8931V9.53307H104.787V12.8931H107.979V14.5731H104.787V21.0291C104.787 21.7651 104.939 22.3011 105.243 22.6371C105.563 22.9731 105.963 23.1731 106.443 23.2371C106.939 23.3011 107.451 23.3011 107.979 23.2371V24.7971C107.355 24.9411 106.739 24.9811 106.131 24.9171C105.539 24.8531 105.003 24.6771 104.523 24.3891C104.059 24.0851 103.683 23.6611 103.395 23.1171C103.123 22.5731 102.987 21.8771 102.987 21.0291V14.5731H101.187V12.8931H102.987Z" fill="black"/>
</g>
</g>
<defs>
<clipPath id="clip0_3016_20856">
<rect width="128" height="34" fill="white"/>
</clipPath>
<clipPath id="clip1_3016_20856">
<rect width="90.2591" height="34" fill="white" transform="translate(19.2676 -0.106934)"/>
</clipPath>
</defs>
</svg>
